# xmcd
#
# Track frame offsets:
#        150
#        6535
#        29912
#        49492
#        71077
#        90272
#        109577
#        129395
#        140072
#        167750
#        185872
#        205012
#        222907
#        256582
#        282845
#        312045
#
# Disc length: 4795 seconds
#
# Revision: 0
# Processed by: cddbd v1.5.2PL0 Copyright (c) Steve Scherf et al.
# Submitted via: ExactAudioCopy v0.95a5
#
DISCID=f012b910
DTITLE=m.o.v.e - GRID
DYEAR=2006
DGENRE=JPop
TTITLE0=GOTHICA (SYMPHONY NO.1)
TTITLE1=FADED -IroasetaAlbum
TTITLE2=ANGEL EYES
TTITLE3=DISCO TIME
TTITLE4=WHITE FOX
TTITLE5=THIS IS MY HEARTACHE
TTITLE6=NAMIDA 3DDD
TTITLE7=MISHA (SKIT)
TTITLE8=FREAKY PLANET
TTITLE9=GIRL (YOU WANNA MOVE)
TTITLE10=DISINFECTED GENERATION
TTITLE11=RAIMEI -OUT OF KONTROL-
TTITLE12=SAIL AWAY
TTITLE13=FREAKY PLANET
TTITLE14=GROOVY PLANET
TTITLE15=CCCD
EXTD=
EXTT0=
EXTT1=
EXTT2=
EXTT3=
EXTT4=
EXTT5=
EXTT6=
EXTT7=
EXTT8=
EXTT9=
EXTT10=
EXTT11=
EXTT12=
EXTT13=
EXTT14=
EXTT15=
PLAYORDER=
